<?xml version="1.0" encoding="UTF-8"?>
<!DOCTYPE svg PUBLIC "-//W3C//DTD SVG 1.1//EN" "http://www.w3.org/Graphics/SVG/1.1/DTD/svg11.dtd">
<svg xmlns="http://www.w3.org/2000/svg" version="1.1" width="32px" height="32px" style="shape-rendering:geometricPrecision; text-rendering:geometricPrecision; image-rendering:optimizeQuality; fill-rule:evenodd; clip-rule:evenodd" xmlns:xlink="http://www.w3.org/1999/xlink">
<g><path style="opacity:0.999" fill="#5d5ae9" d="M -0.5,-0.5 C 10.1667,-0.5 20.8333,-0.5 31.5,-0.5C 31.5,10.1667 31.5,20.8333 31.5,31.5C 20.8333,31.5 10.1667,31.5 -0.5,31.5C -0.5,20.8333 -0.5,10.1667 -0.5,-0.5 Z"/></g>
<g><path style="opacity:1" fill="#ebeafc" d="M 5.5,7.5 C 8.90785,6.82801 11.5745,7.82801 13.5,10.5C 11.0106,9.44077 8.17731,9.44077 5,10.5C 3,13.8333 3,17.1667 5,20.5C 7.06385,21.5914 9.23052,21.7581 11.5,21C 12.3366,19.9887 12.67,18.8221 12.5,17.5C 11.325,17.719 10.325,17.3857 9.5,16.5C 11.0453,15.5481 12.712,15.2148 14.5,15.5C 14.8134,18.2469 14.48,20.9135 13.5,23.5C 10.6061,23.6612 7.60614,23.3279 4.5,22.5C 0.330822,17.1871 0.664155,12.1871 5.5,7.5 Z"/></g>
<g><path style="opacity:1" fill="#e9e8fc" d="M 16.5,8.5 C 17.3864,7.2241 18.3864,7.2241 19.5,8.5C 20.6667,10.1667 21.8333,11.8333 23,13.5C 24.3076,11.3586 25.8076,9.35857 27.5,7.5C 27.8333,7.83333 28.1667,8.16667 28.5,8.5C 27.3492,10.8091 26.0159,12.9758 24.5,15C 25.7553,17.9223 27.422,20.589 29.5,23C 28.365,23.7494 27.365,23.5827 26.5,22.5C 25.3333,20.8333 24.1667,19.1667 23,17.5C 21.3409,18.8168 20.1743,20.4835 19.5,22.5C 18.635,23.5827 17.635,23.7494 16.5,23C 18.2907,20.586 19.9574,18.086 21.5,15.5C 20.164,12.8463 18.4974,10.513 16.5,8.5 Z"/></g>
</svg>
